<?xml version="1.0" encoding="utf-8"?>
<!-- Generator: Adobe Illustrator 22.0.1, SVG Export Plug-In . SVG Version: 6.00 Build 0)  -->
<svg version="1.1" id="Layer_1" xmlns="http://www.w3.org/2000/svg" xmlns:xlink="http://www.w3.org/1999/xlink" x="0px" y="0px"
	 width="768.5px" height="198.8px" viewBox="0 0 768.5 198.8" style="enable-background:new 0 0 768.5 198.8;" xml:space="preserve"
	>
<style type="text/css">
	.st0{clip-path:url(#SVGID_2_);fill:#03BABE;}
	.st1{clip-path:url(#SVGID_2_);fill:#F15825;}
	.st2{clip-path:url(#SVGID_2_);fill:#FFFFFF;}
</style>
<g>
	<defs>
		<rect id="SVGID_1_" width="768.5" height="198.8"/>
	</defs>
	<clipPath id="SVGID_2_">
		<use xlink:href="#SVGID_1_"  style="overflow:visible;"/>
	</clipPath>
	<path class="st0" d="M733.9,186.9c0,6.6-8.2,11.9-18.3,11.9H18.3C8.2,198.8,0,193.5,0,186.9v-48.2c0-6.6,8.2-11.9,18.3-11.9h697.4
		c10.1,0,18.3,5.3,18.3,11.9V186.9z"/>
	<path class="st1" d="M115.4,77.5c-8.7,6.3-19.7,9.4-32.6,9.4H33.7v23.6H4.6v-48h81.1c4,0,7.3-1,10-3c2.7-2,4.2-4.7,4.2-8
		c0-3.3-1.3-5.9-4-7.8c-2.7-2-6.1-2.9-10.2-2.9H4.6l19.3-24.4h59.1c12.9,0,23.7,3.1,32.5,9.4c9.1,6.5,13.7,15.3,13.7,25.8
		C129.1,62.2,124.6,70.9,115.4,77.5"/>
	<polygon class="st1" points="214.7,110.5 131.3,110.5 131.3,16.4 233.4,16.4 214.7,40.8 160.5,40.8 160.5,50.7 228.9,50.7 
		210.1,75 160.5,75 160.5,86.2 233.4,86.2 	"/>
	<polygon class="st1" points="447.4,110.5 364.1,110.5 364.1,16.4 466.2,16.4 447.4,40.8 393.3,40.8 393.3,50.7 461.7,50.7 
		442.9,75 393.3,75 393.3,86.2 466.2,86.2 	"/>
	<path class="st1" d="M572.5,40.8h-47.2c-8,0-14.6,2.2-19.8,6.4c-5.3,4.3-8,9.9-8,16.6c0,6.7,2.6,12.1,7.8,16.2
		c5.2,4.2,11.9,6.3,20,6.3h33.9v-8.7h-36.5l-19.2-23.2h84.9v56.2h-63.1c-16.3,0-29.9-4.6-40.6-13.6c-10.8-9.1-16.2-20.6-16.2-34.3
		c0-13.7,5.3-24.9,15.9-33.4c10.6-8.5,24.3-12.8,40.8-12.8h66L572.5,40.8z"/>
	<path class="st1" d="M722,97c-10.8,9.1-24.4,13.7-40.7,13.7H653c-16.4,0-30-4.6-40.7-13.6c-10.8-9.1-16.2-20.6-16.2-34.3
		c0-13.7,5.3-24.9,15.9-33.4c10.7-8.5,24.4-12.8,41-12.8h28.3c16.6,0,30.3,4.3,40.8,12.8c10.6,8.5,15.9,19.7,15.9,33.4
		C738,76.5,732.6,88,722,97 M653,41.1c-8.1,0-14.7,2.1-20,6.4c-5.2,4.3-7.8,9.9-7.8,16.6s2.6,12.1,7.8,16.2c5.2,4.2,11.9,6.3,20,6.3
		h28.3c8.1,0,14.7-2.1,19.9-6.1c5.2-4.2,7.8-9.7,7.8-16.3s-2.6-12.1-7.8-16.4c-5.3-4.3-12-6.5-19.9-6.5H653z"/>
	<rect x="654.7" y="52.9" class="st1" width="7.4" height="21.4"/>
	<rect x="676.3" y="52.9" class="st1" width="7.4" height="21.4"/>
	<path class="st1" d="M342.1,29.2c-10.6-8.5-24.3-12.8-40.8-12.8h-44.5l-18.5,24.3h-0.1v69.7h63c16.3,0,29.9-4.6,40.7-13.7
		c10.7-9,16-20.5,16-34.2C358,48.9,352.6,37.7,342.1,29.2 M321.2,80.1c-5.2,4-11.9,6.1-20,6.1h-33.8v-8.3H251v-9.5h16.5v-8.9H251
		v-9.4h16.5v-9.3h33.8c8,0,14.6,2.2,20,6.5c5.2,4.3,7.8,9.8,7.8,16.4C329,70.4,326.4,75.9,321.2,80.1"/>
	<polygon class="st2" points="48.6,182.1 20.5,182.1 20.5,144.8 48.2,144.8 48.2,152.3 31.7,152.3 31.7,159.1 47.4,159.1 
		47.4,166.6 31.7,166.6 31.7,174.6 48.6,174.6 	"/>
	<polygon class="st2" points="101.1,182.1 72.7,182.1 72.7,144.8 84,144.8 84,173.2 101.1,173.2 	"/>
	<polygon class="st2" points="152.3,182.1 124.2,182.1 124.2,144.8 151.8,144.8 151.8,152.3 135.4,152.3 135.4,159.1 151.1,159.1 
		151.1,166.6 135.4,166.6 135.4,174.6 152.3,174.6 	"/>
	<path class="st2" d="M209.8,179.3c-1.5,0.8-3.1,1.5-4.7,1.9c-1.6,0.5-3.2,0.8-4.9,1c-1.6,0.2-3.3,0.3-5.1,0.3
		c-3.2,0-6.2-0.5-8.7-1.4c-2.6-0.9-4.8-2.2-6.7-4c-1.9-1.8-3.3-3.8-4.3-6.1c-0.9-2.3-1.4-4.9-1.4-7.7c0-3.2,0.5-6,1.7-8.4
		c1.1-2.4,2.7-4.4,4.7-6c2-1.6,4.3-2.8,6.8-3.5c2.6-0.8,5.3-1.1,8.1-1.1c4.2,0,9,0.9,14.4,2.8v9.9c-1.9-1.2-3.7-2.1-5.5-2.9
		c-1.8-0.8-3.9-1.1-6.4-1.1c-2.2,0-4.2,0.4-6.1,1.3c-1.9,0.9-3.4,2.1-4.6,3.7c-1.1,1.6-1.7,3.5-1.7,5.6c0,1.9,0.5,3.6,1.5,5.2
		c1,1.6,2.4,2.8,4.2,3.7c1.8,0.9,3.8,1.4,6,1.4c1.8,0,3.5-0.2,5.1-0.7c1.6-0.4,3-0.9,4.1-1.5c1.1-0.5,2.2-1.2,3.4-1.9V179.3z"/>
	<polygon class="st2" points="269.7,153.9 256,153.9 256,182.1 244.8,182.1 244.8,153.9 231.1,153.9 231.1,144.8 269.7,144.8 	"/>
	<path class="st2" d="M329,182.1h-12.1l-2.9-6.6c-1.1-2.4-2-4.2-2.9-5.3c-0.9-1.1-1.7-1.8-2.5-2.2c-0.8-0.3-1.9-0.5-3.2-0.5h-1.3
		v14.6h-11.3v-37.3H312c3.1,0,5.6,0.6,7.6,1.9c2,1.3,3.4,2.8,4.3,4.6c0.9,1.8,1.3,3.5,1.3,5.1c0,1.9-0.4,3.5-1.1,4.8
		c-0.7,1.3-1.5,2.3-2.3,2.8c-0.8,0.6-1.7,1.2-2.7,1.7c1.2,0.7,2.2,1.5,3,2.5c0.8,1,1.8,2.9,3.2,5.8L329,182.1z M313.7,156.6
		c0-1.7-0.6-2.9-1.7-3.6c-1.1-0.7-3-1-5.5-1h-2.4v9h2.4c2.7,0,4.6-0.3,5.6-0.9C313.1,159.4,313.7,158.3,313.7,156.6"/>
	<rect x="350.7" y="144.8" class="st2" width="11.3" height="37.3"/>
	<path class="st2" d="M421.3,179.3c-1.6,0.8-3.1,1.5-4.7,1.9c-1.6,0.5-3.2,0.8-4.9,1c-1.6,0.2-3.3,0.3-5.1,0.3
		c-3.2,0-6.2-0.5-8.7-1.4c-2.6-0.9-4.8-2.2-6.7-4c-1.9-1.8-3.3-3.8-4.3-6.1c-0.9-2.3-1.4-4.9-1.4-7.7c0-3.2,0.6-6,1.7-8.4
		c1.1-2.4,2.7-4.4,4.7-6c2-1.6,4.3-2.8,6.8-3.5c2.6-0.8,5.3-1.1,8.1-1.1c4.2,0,9,0.9,14.4,2.8v9.9c-1.9-1.2-3.7-2.1-5.5-2.9
		c-1.8-0.8-3.9-1.1-6.4-1.1c-2.2,0-4.2,0.4-6.1,1.3c-1.9,0.9-3.4,2.1-4.6,3.7c-1.2,1.6-1.7,3.5-1.7,5.6c0,1.9,0.5,3.6,1.5,5.2
		c1,1.6,2.4,2.8,4.2,3.7c1.8,0.9,3.8,1.4,6,1.4c1.8,0,3.5-0.2,5.1-0.7c1.6-0.4,3-0.9,4.1-1.5c1.1-0.5,2.2-1.2,3.4-1.9V179.3z"/>
	<path class="st2" d="M512.4,171.5c0,3.2-1.1,5.8-3.3,7.7c-2.2,1.9-5.3,2.9-9.2,2.9h-21.6v-37.3h18c2.3,0,4.4,0.2,6.1,0.7
		c1.7,0.4,3.1,1.1,4.2,1.8c1.1,0.8,1.9,1.7,2.4,2.8c0.5,1.1,0.8,2.2,0.8,3.5c0,1.4-0.3,2.6-0.8,3.8c-0.5,1.2-1.2,2.1-2,2.9
		c-0.8,0.7-1.6,1.3-2.4,1.6c2.5,1,4.5,2.3,5.8,3.8C511.8,167.1,512.4,169.1,512.4,171.5 M499.3,155.5c0-1.8-0.6-3-1.8-3.6
		c-1.2-0.6-3-0.9-5.6-0.9h-2.4v8.9h2.4c2.6,0,4.4-0.3,5.6-0.9C498.7,158.5,499.3,157.3,499.3,155.5 M501.1,171.1
		c0-3.2-2.3-4.8-6.9-4.8h-4.6v9.6h4.6C498.8,175.8,501.1,174.2,501.1,171.1"/>
	<rect x="536.3" y="144.8" class="st2" width="11.3" height="37.3"/>
	<polygon class="st2" points="612.7,182.1 599,182.1 584.7,164.6 584.7,182.1 573.5,182.1 573.5,144.8 584.7,144.8 584.7,161.5 
		598.3,144.8 610.5,144.8 596.6,162.3 	"/>
	<polygon class="st2" points="662.3,182.1 634.2,182.1 634.2,144.8 661.9,144.8 661.9,152.3 645.5,152.3 645.5,159.1 661.1,159.1 
		661.1,166.6 645.5,166.6 645.5,174.6 662.3,174.6 	"/>
	<path class="st2" d="M712.5,171.2c0,2.3-0.6,4.4-1.8,6.1c-1.2,1.7-2.9,3-5,3.9c-2.1,0.9-4.6,1.4-7.4,1.4c-0.8,0-1.7-0.1-2.8-0.2
		c-1.1-0.1-2.6-0.4-4.5-0.8c-1.9-0.5-3.8-1.1-5.8-2v-9.2c1.9,1.2,3.7,2.1,5.6,2.9c1.8,0.8,3.8,1.2,5.9,1.2c1.9,0,3.2-0.3,3.7-1
		c0.6-0.6,0.8-1.2,0.8-1.8c0-1-0.5-1.9-1.5-2.5c-1-0.7-2.4-1.4-4.2-2.1c-2-0.9-3.8-1.8-5.4-2.8c-1.5-1-2.8-2.3-3.8-3.8
		c-1-1.5-1.5-3.3-1.5-5.4c0-2,0.5-3.8,1.5-5.5c1-1.6,2.5-2.9,4.5-3.9c2-1,4.5-1.5,7.4-1.5c2.1,0,4,0.2,5.8,0.6
		c1.8,0.4,3.2,0.9,4.4,1.4c1.1,0.5,1.9,0.9,2.4,1.2v8.8c-1.5-1.1-3.2-2.1-5.1-2.9c-1.9-0.9-3.9-1.3-6-1.3c-1.4,0-2.4,0.3-3,0.8
		c-0.6,0.5-0.9,1.2-0.9,2c0,0.7,0.3,1.4,0.9,1.9c0.6,0.5,1.8,1.2,3.4,2c2.9,1.4,5.2,2.6,6.9,3.6c1.7,1.1,3.1,2.3,4.1,3.7
		C712,167.4,712.5,169.1,712.5,171.2"/>
	<path class="st1" d="M768.5,13.1c0,7.4-5.8,13.2-13.4,13.2c-7.5,0-13.5-5.8-13.5-13.2c0-7.2,6-13.1,13.5-13.1
		C762.7,0,768.5,5.8,768.5,13.1 M745,13.1c0,5.8,4.3,10.4,10.2,10.4c5.7,0,10-4.6,10-10.3c0-5.8-4.2-10.5-10-10.5
		C749.3,2.6,745,7.3,745,13.1 M753.1,19.9h-3V6.8c1.2-0.2,2.9-0.4,5-0.4c2.5,0,3.6,0.4,4.5,1c0.7,0.6,1.3,1.6,1.3,2.9
		c0,1.4-1.1,2.5-2.7,3v0.2c1.3,0.5,2,1.4,2.4,3.2c0.4,2,0.6,2.8,1,3.3h-3.3c-0.4-0.5-0.6-1.7-1-3.2c-0.2-1.4-1-2.1-2.7-2.1h-1.4
		V19.9z M753.1,12.5h1.4c1.7,0,3-0.6,3-1.9c0-1.2-0.9-2-2.8-2c-0.8,0-1.4,0.1-1.7,0.2V12.5z"/>
</g>
</svg>
